# xmcd CD database file
#
# Track frame offsets:
#	150
#	13620
#	30682
#	45385
#	61547
#	74457
#	85732
#	107705
#	126345
#	143020
#	156372
#	174172
#
# Disc length: 2757 seconds
#
# Revision: 17
# Processed by: cddbd v1.5.2PL0 Copyright (c) Steve Scherf et al.
# Submitted via: CDex 1.70beta2
#
DISCID=930ac30c
DTITLE=Züri West - Aloha from Züri West
DYEAR=2004
DGENRE=Rock
TTITLE0=Tribsand
TTITLE1=Fingt ds Glück eim?
TTITLE2=I ha ke Ahnig wie me mit som'ne Ängu redt
TTITLE3=Geri Gagarin
TTITLE4=Zimmerwaud
TTITLE5=Hula
TTITLE6=Römer
TTITLE7=Pünktli
TTITLE8=Popsong
TTITLE9=Am Tag wo är isch gange
TTITLE10=Mir hei üs troffe im ne Garte
TTITLE11=Schötem (Jaël vs. Lauener)
EXTD=YEAR: 2004
EXTT0=
EXTT1=
EXTT2=
EXTT3=
EXTT4=
EXTT5=
EXTT6=
EXTT7=
EXTT8=
EXTT9=
EXTT10=
EXTT11=
PLAYORDER=
